<?xml version="1.0" encoding="utf-8"?>
<!-- Generator: Adobe Illustrator 21.0.2, SVG Export Plug-In . SVG Version: 6.00 Build 0)  -->
<svg version="1.1" id="Layer_1" xmlns="http://www.w3.org/2000/svg" xmlns:xlink="http://www.w3.org/1999/xlink" x="0px" y="0px"
	 viewBox="0 0 101.5 133.6" style="enable-background:new 0 0 101.5 133.6;" xml:space="preserve">
<style type="text/css">
	.st0{fill:none;stroke:#010101;stroke-width:4;stroke-miterlimit:10;}
	.st1{fill:#333333;stroke:#FFFFFF;stroke-width:1.5;stroke-miterlimit:10;}
	.st2{fill:#666666;}
	.st3{fill:#333333;}
	.st4{fill:#FFFFFF;stroke:#333333;stroke-width:2.5;stroke-miterlimit:10;}
</style>
<path class="st0" d="M20,46.5"/>
<g>
	<polygon class="st1" points="84.2,94.5 84.2,75.4 67.7,65.9 51.1,75.4 51.1,94.5 67.7,104.1 	"/>
	<polygon class="st1" points="100.8,65.1 100.8,46 84.2,36.4 67.7,46 67.7,65.1 84.2,74.6 	"/>
	<polygon class="st1" points="67.7,123.2 67.7,104.1 51.1,94.5 34.6,104.1 34.6,123.2 51.1,132.7 	"/>
	<polygon class="st1" points="51.1,94.5 51.1,75.4 34.6,65.9 18.1,75.4 18.1,94.5 34.6,104.1 	"/>
	<polygon class="st1" points="33.8,65.1 33.8,46 17.3,36.4 0.8,46 0.8,65.1 17.3,74.6 	"/>
	<polygon class="st1" points="67.7,65.1 67.7,46 51.1,36.4 34.6,46 34.6,65.1 51.1,74.6 	"/>
</g>
<path class="st2" d="M48.6,36.3c0.3-1.1,0.6-2.1,0.7-3.2v-6c0-1.4,1.2-2.6,2.6-2.6c1.5,0,2.6,1.2,2.6,2.6v5.5
	c0.1,1.3,0.3,2.5,0.7,3.7c5.6,2.5,12.5,1.6,17.4-2.8c4.9-4.5,6.4-11.2,4.4-17c-4.6-2-10-1.8-14.4,0.7c0-0.3,0-0.5,0-0.7
	c0-7.4-4.4-13.7-10.8-16.5c-6.3,2.8-10.8,9.1-10.8,16.5c0,0.2,0,0.4,0,0.6c-4.4-2.4-9.7-2.6-14.2-0.6c-2,5.9-0.5,12.6,4.4,17
	C36.1,37.9,43,38.8,48.6,36.3L48.6,36.3z"/>
<rect x="44" y="29" transform="matrix(6.123234e-17 -1 1 6.123234e-17 -10.3603 100.6978)" class="st3" width="2.3" height="53"/>
<rect x="30" y="51.4" transform="matrix(0.8663 -0.4995 0.4995 0.8663 -34.7139 25.985)" class="st3" width="2.3" height="53"/>
<polygon class="st4" points="61.5,119.6 61.5,107.6 51.1,101.7 40.8,107.6 40.8,119.6 51.1,125.6 "/>
</svg>
